<?xml version="1.0" encoding="UTF-8"?>
<svg version="1.1" xmlns="http://www.w3.org/2000/svg" viewBox="0 0 529 529">
  <defs>
    <style>
      .cls-1 {
        fill: #e1e7ef;
      }

      .cls-2 {
        fill: #231815;
      }

      .cls-3 {
        fill: #3bb0b4;
      }
    </style>
  </defs>
  <rect class="cls-1" width="529" height="529"/>
  <g>
    <path class="cls-2" d="M447.519,153.253l-23.614-21.927c-1.687-1.27-5.902-4.638-8.43-4.638s-4.221.841-8.859,4.215l-11.805,8.013-.714,3.632c-23.929-3.408-72.439-9.139-128.526-9.208,1.944-6.96,4.752-19.468,4.752-33.788,0-21.887-6.571-39.622-6.571-39.622,0,0-6.577,17.735-6.577,39.622,0,14.327,2.814,26.834,4.764,33.794-62.116.194-114.726,7.269-134.514,10.312l-.395-4.741c-1.264-8.013-2.528-12.651-4.215-18.976h-2.533c-2.528,19.816-3.792,32.467-24.455,54.818-13.074,13.921-17.712,18.559-17.712,26.571s5.902,12.651,14.761,12.651c27.406,0,35.419-42.173,35.001-64.941l-.281-3.317c20.2,1.544,73.863,5.136,136.905,5.136,55.967,0,104.517-2.831,128.852-4.547l-9.087,46.165,2.11,1.258c12.651-7.583,32.891-21.927,37.106-24.878,1.269,0,15.184-.423,19.399-1.264,5.061-.841,8.012-2.533,8.012-7.166,0-2.951-1.264-5.061-3.374-7.172Z"/>
    <path class="cls-2" d="M135.552,336.086c0-70.494,54.401-128.135,130.568-132.667-3.197-.189-6.411-.32-9.665-.32-80.68,0-146.084,59.536-146.084,132.987s65.404,132.993,146.084,132.993c3.254,0,6.468-.132,9.665-.323-76.173-4.535-130.568-62.179-130.568-132.67Z"/>
    <path class="cls-2" d="M275.785,203.099c-3.254,0-6.468.131-9.665.32,76.174,4.533,130.568,62.173,130.568,132.667s-54.395,128.135-130.568,132.67c3.197.192,6.412.323,9.665.323,80.68,0,146.084-59.548,146.084-132.993s-65.404-132.987-146.084-132.987Z"/>
    <path class="cls-3" d="M274.761,345.145c79.302-.589,142.235-9.056,142.235-9.056,0,0-62.744-8.439-141.88-9.053.057-4.733.091-9.523.091-14.372,0-83.328-9.088-150.877-9.088-150.877,0,0-9.093,67.548-9.093,150.877,0,4.85.035,9.64.091,14.372-79.13.614-141.875,9.053-141.875,9.053,0,0,62.933,8.467,142.235,9.056,1.825,67.706,8.642,118.392,8.642,118.392,0,0,6.812-50.686,8.642-118.392Z"/>
  </g>
</svg>